# xmcd
#
# Track frame offsets:
#	150
#	11630
#	21862
#	32730
#	42765
#	53175
#	64025
#	75277
#	87642
#	100437
#	110910
#	121130
#	131912
#	143227
#	153847
#	165525
#	174910
#	187197
#	198305
#	209510
#	220600
#	231295
#	244127
#	253375
#	263412
#	275117
#	285505
#	298037
#	308840
#	320175
#	332570
#	343245
#
# Disc length: 4735 seconds
#
# Revision: 1
# Processed by: cddbd v1.4PL0 Copyright (c) Steve Scherf et al.
# Submitted via: audiograbber 1.80
#
DISCID=e8127d20
DTITLE=jean shepard - the melody ranch girl disc 5
DYEAR=1900
DGENRE=
TTITLE0=i've learned to live with you 1962
TTITLE1=nobody like you 1996
TTITLE2=lake lonely 1996
TTITLE3=it's never too late 1962
TTITLE4=one less heartache 1962
TTITLE5=a tear dropped by 1964
TTITLE6=when your house is not a hone 1963
TTITLE7=i can't cry him away 1967
TTITLE8=that's what lonesome is 1963
TTITLE9=foggy river 1964
TTITLE10=when two worlds collide 1964
TTITLE11=loose talk 1964
TTITLE12=i can't stop loving you 1964
TTITLE13=the big wheel 1964
TTITLE14=born to loose 1964
TTITLE15=if you've got the money, i've got the tine 1964
TTITLE16=half a mind 1964
TTITLE17=cigarettes and coffee blues 1964
TTITLE18=that's what it's like to be lonesome 1964
TTITLE19=the violet and a rose 1964
TTITLE20=just call me lonesome 1964
TTITLE21=two little boys 1964
TTITLE22=he plays the bongo (i play the banjo) 1964
TTITLE23=second fiddle (to an old guitar) 1964
TTITLE24=nobody's business (& cal smith) 1996
TTITLE25=it was too late (& cal smith) 1996
TTITLE26=someone's gotta cry 1964
TTITLE27=ain't you ashamed 1965
TTITLE28=don't take advantage of me 1964
TTITLE29=let me be the judge 1965
TTITLE30=more to love than this 1965
TTITLE31=franklin county moonshine 1965
EXTD=
EXTT0=
EXTT1=
EXTT2=
EXTT3=
EXTT4=
EXTT5=
EXTT6=
EXTT7=
EXTT8=
EXTT9=
EXTT10=
EXTT11=
EXTT12=
EXTT13=
EXTT14=
EXTT15=
EXTT16=
EXTT17=
EXTT18=
EXTT19=
EXTT20=
EXTT21=
EXTT22=
EXTT23=
EXTT24=
EXTT25=
EXTT26=
EXTT27=
EXTT28=
EXTT29=
EXTT30=
EXTT31=
PLAYORDER=
